<svg id="Layer_1" data-name="Layer 1" xmlns="http://www.w3.org/2000/svg" viewBox="0 0 354.26 608.97"><defs><style>.cls-1{fill:#006494;}.cls-2{fill:#fff;}.cls-3,.cls-7{fill:#231f20;}.cls-3,.cls-8{opacity:0.2;}.cls-4{fill:#dfdbda;}.cls-5{fill:#091a26;}.cls-6{fill:#0f2b46;}.cls-7{opacity:0.1;}.cls-9{fill:#ff847f;}.cls-10{fill:#1a2e35;}.cls-11{fill:#efb4b1;}.cls-12{fill:#ffc3bd;}.cls-13{fill:#f46f52;}.cls-14{fill:#ea6650;}</style></defs><title>books</title><path class="cls-1" d="M805.13,778.33h302.09c20-21.88,22.11-49.89,0-66.36H805.13v7.94h9.57v49.54h-9.57Z" transform="translate(-780.59 -235.73)"/><path class="cls-2" d="M814.7,769.45h286.86c13.81-11,14.22-39.49,0-49.54H814.7Z" transform="translate(-780.59 -235.73)"/><path class="cls-3" d="M1094.28,729.14H814.7v-9.23h286.86c14.22,10.05,13.81,38.56,0,49.54h-.21C1107.58,756.22,1105.42,737,1094.28,729.14Z" transform="translate(-780.59 -235.73)"/><path class="cls-4" d="M1090.23,738.93c-18.06.88-36.12,1.34-54.19,1.66-9,.2-18.06.24-27.09.36l-27.1.11L954.76,741c-9-.12-18.06-.16-27.1-.36-18.06-.31-36.12-.77-54.19-1.66,18.07-.9,36.13-1.36,54.19-1.67,9-.2,18.07-.24,27.1-.36l27.09-.11,27.1.12c9,.11,18.06.16,27.09.35C1054.11,737.58,1072.17,738,1090.23,738.93Z" transform="translate(-780.59 -235.73)"/><path class="cls-4" d="M1058.69,753.91c-18.06.89-36.13,1.35-54.19,1.66-9,.2-18.06.24-27.09.36l-27.1.12-27.09-.11c-9-.12-18.07-.16-27.1-.36-18.06-.31-36.13-.78-54.19-1.67,18.06-.89,36.13-1.36,54.19-1.67,9-.2,18.06-.24,27.1-.35l27.09-.12,27.1.12c9,.12,18.06.16,27.09.36C1022.56,752.56,1040.63,753,1058.69,753.91Z" transform="translate(-780.59 -235.73)"/><path class="cls-1" d="M1103.59,645.82H801.5c-20-21.88-22.11-49.88,0-66.36h302.09v7.94H1094v49.54h9.57Z" transform="translate(-780.59 -235.73)"/><path class="cls-2" d="M1094,636.94H807.16c-13.82-11-14.22-39.49,0-49.54H1094Z" transform="translate(-780.59 -235.73)"/><path class="cls-3" d="M814.44,596.63H1094V587.4H807.16c-14.22,10.05-13.82,38.56,0,49.54h.21C801.14,623.71,803.3,604.51,814.44,596.63Z" transform="translate(-780.59 -235.73)"/><path class="cls-4" d="M818.48,606.42c18.07-.89,36.13-1.35,54.19-1.67,9-.19,18.07-.24,27.1-.35l27.09-.12,27.1.11c9,.12,18.06.16,27.09.36,18.07.31,36.13.78,54.19,1.67-18.06.89-36.12,1.35-54.19,1.67-9,.19-18.06.23-27.09.35l-27.1.11-27.09-.11c-9-.12-18.06-.16-27.1-.36C854.61,607.76,836.55,607.3,818.48,606.42Z" transform="translate(-780.59 -235.73)"/><path class="cls-4" d="M850,621.4c18.06-.88,36.12-1.35,54.19-1.66,9-.2,18.06-.24,27.09-.36l27.1-.12,27.09.12c9,.12,18.07.15,27.1.35,18.06.32,36.12.78,54.19,1.67-18.07.89-36.13,1.36-54.19,1.67-9,.2-18.07.24-27.1.36l-27.09.11-27.1-.12c-9-.12-18.06-.16-27.09-.36C886.15,622.75,868.09,622.29,850,621.4Z" transform="translate(-780.59 -235.73)"/><path class="cls-5" d="M817,844.69h302.08c20-21.88,22.11-49.88,0-66.36H817v7.94h9.57v49.54H817Z" transform="translate(-780.59 -235.73)"/><path class="cls-6" d="M780.87,844.69H1083c20-21.88,22.11-49.88,0-66.36H780.87v7.94h9.57v49.54h-9.57Z" transform="translate(-780.59 -235.73)"/><path class="cls-2" d="M790.44,835.81h286.85c13.82-11,14.22-39.48,0-49.54H790.44Z" transform="translate(-780.59 -235.73)"/><path class="cls-3" d="M1070,795.51H790.44v-9.24h286.85c14.22,10.06,13.82,38.57,0,49.54h-.2C1083.32,822.59,1081.16,803.38,1070,795.51Z" transform="translate(-780.59 -235.73)"/><path class="cls-4" d="M1066,805.29c-18.06.89-36.13,1.35-54.19,1.66-9,.2-18.06.24-27.1.36l-27.09.12-27.1-.11c-9-.12-18.06-.16-27.09-.36-18.06-.31-36.13-.78-54.19-1.67,18.06-.89,36.13-1.36,54.19-1.67,9-.2,18.06-.24,27.09-.36l27.1-.11,27.09.12c9,.12,18.07.16,27.1.36C1029.84,803.94,1047.91,804.4,1066,805.29Z" transform="translate(-780.59 -235.73)"/><path class="cls-4" d="M1034.43,820.28c-18.07.88-36.13,1.34-54.19,1.66-9,.19-18.07.24-27.1.35l-27.09.12L899,822.3c-9-.12-18.06-.16-27.09-.36-18.07-.31-36.13-.77-54.19-1.66,18.06-.9,36.12-1.36,54.19-1.67,9-.2,18.06-.24,27.09-.36l27.1-.11,27.09.12c9,.11,18.06.16,27.1.35C998.3,818.93,1016.36,819.39,1034.43,820.28Z" transform="translate(-780.59 -235.73)"/><path class="cls-6" d="M816.72,580.1H1118.8c20-21.88,22.11-49.88,0-66.36H816.72v7.94h9.57v49.54h-9.57Z" transform="translate(-780.59 -235.73)"/><path class="cls-5" d="M780.59,580.1h302.09c20-21.88,22.11-49.88,0-66.36H780.59v7.94h9.57v49.54h-9.57Z" transform="translate(-780.59 -235.73)"/><path class="cls-2" d="M790.16,571.22H1077c13.82-11,14.22-39.49,0-49.54H790.16Z" transform="translate(-780.59 -235.73)"/><path class="cls-3" d="M1069.74,530.91H790.16v-9.23H1077c14.22,10.05,13.82,38.56,0,49.54h-.2C1083,558,1080.88,538.79,1069.74,530.91Z" transform="translate(-780.59 -235.73)"/><path class="cls-4" d="M1065.7,540.7c-18.07.88-36.13,1.35-54.19,1.66-9,.2-18.07.24-27.1.36l-27.09.11-27.1-.11c-9-.12-18.06-.15-27.09-.35-18.07-.32-36.13-.78-54.19-1.67,18.06-.89,36.12-1.36,54.19-1.67,9-.2,18.06-.24,27.09-.36l27.1-.11,27.09.12c9,.11,18.07.16,27.1.35C1029.57,539.35,1047.63,539.81,1065.7,540.7Z" transform="translate(-780.59 -235.73)"/><path class="cls-4" d="M1034.15,555.68c-18.06.89-36.12,1.35-54.19,1.67-9,.19-18.06.24-27.09.35l-27.1.12-27.09-.11c-9-.12-18.06-.16-27.1-.36-18.06-.31-36.12-.78-54.19-1.67,18.07-.89,36.13-1.35,54.19-1.67,9-.2,18.07-.23,27.1-.35l27.09-.12,27.1.12c9,.12,18.06.16,27.09.36C998,554.33,1016.09,554.8,1034.15,555.68Z" transform="translate(-780.59 -235.73)"/><rect class="cls-6" x="786.12" y="645.15" width="331.07" height="67.2" rx="4.28" transform="translate(1122.72 1121.78) rotate(180)"/><path class="cls-7" d="M1111.8,660.45a3.24,3.24,0,0,0-3.23-3.24H786.12v-8.82a3.24,3.24,0,0,1,3.24-3.24H1114a3.23,3.23,0,0,1,3.23,3.24v60.73a3.23,3.23,0,0,1-3.23,3.23h-2.16Z" transform="translate(-780.59 -235.73)"/><rect class="cls-8" x="1034.43" y="645.15" width="39.63" height="66.81" transform="translate(1327.89 1121.39) rotate(180)"/><rect class="cls-8" x="995.33" y="654.27" width="25.65" height="48.58" transform="translate(1235.72 1121.39) rotate(180)"/><rect class="cls-1" x="786.12" y="446.54" width="331.07" height="67.2" rx="4.28" transform="translate(1122.72 724.54) rotate(180)"/><path class="cls-7" d="M1111.8,461.83a3.23,3.23,0,0,0-3.23-3.23H786.12v-8.83a3.23,3.23,0,0,1,3.24-3.23H1114a3.22,3.22,0,0,1,3.23,3.23V510.5a3.23,3.23,0,0,1-3.23,3.24h-2.16Z" transform="translate(-780.59 -235.73)"/><rect class="cls-8" x="1034.43" y="446.54" width="39.63" height="66.81" transform="translate(1327.89 724.16) rotate(180)"/><rect class="cls-8" x="995.33" y="455.65" width="25.65" height="48.58" transform="translate(1235.72 724.16) rotate(180)"/><path class="cls-9" d="M978,280.82s1,7.57.16,12.11c2.71.65,5.27-2.05,5.27-2.05Z" transform="translate(-780.59 -235.73)"/><path class="cls-10" d="M898.27,525.36a5.87,5.87,0,0,0-2.15-.34,1.72,1.72,0,0,0-1.65,2.39c.65,2.07,3,3,5,3.7l22.83,7.57a2.72,2.72,0,0,0,1,.2,2.25,2.25,0,0,0,1.09-.46c2.35-1.66,3.21-4.73,3.51-7.59s.23-5.84,1.38-8.48c.4-.93,1-2,.47-2.89a2.74,2.74,0,0,0-1-.92,32.94,32.94,0,0,0-7.06-3.31c.27.1-2.63,7.78-3.14,8.44C914,529.56,904.33,527,898.27,525.36Z" transform="translate(-780.59 -235.73)"/><path class="cls-11" d="M1002.5,310.19a1.25,1.25,0,0,0,.25.59,1.19,1.19,0,0,0,.71.29c5.57.92,11.26-.07,16.77-1.25q-2.24-9.68-5-19.21a.87.87,0,0,0-.29-.52.89.89,0,0,0-.7-.07q-4.26.76-8.5,1.63c-2.39.48-4.79.76-7.18,1.3a90.46,90.46,0,0,1,2.09,8.82C1001.24,304.59,1001.86,307.39,1002.5,310.19Z" transform="translate(-780.59 -235.73)"/><path class="cls-10" d="M928.77,449a183.61,183.61,0,0,1,9.06-24.62,10,10,0,0,1,2.81-4.08,10.17,10.17,0,0,1,3.73-1.46L975.75,411c10.32-2.58,20.71-5.16,31.32-5.94,6.62-.48,26-2.55,28.45,5.5.83,2.73-.1,5.7-1.47,8.21-5,9.1-15.11,14-24.9,17.46A174.82,174.82,0,0,1,958,446c-9.23,25.69-16.18,52.16-24.14,78.34l-20.55-5.56s5.94-31.55,6.71-34.85C922.81,472.11,925.39,460.43,928.77,449Z" transform="translate(-780.59 -235.73)"/><path class="cls-10" d="M960.27,541.16a5.9,5.9,0,0,0-1.7,1.35,1.94,1.94,0,0,0-.29,2,2.11,2.11,0,0,0,.93.79c2,.91,4.24-.17,6.13-1.22l21-11.72a2.64,2.64,0,0,0,.86-.65,2.16,2.16,0,0,0,.4-1.11c.36-2.85-1.32-5.56-3.23-7.72s-4.15-4.11-5.32-6.74c-.41-.93-.83-2.06-1.82-2.3a2.77,2.77,0,0,0-1.36.13,32.36,32.36,0,0,0-7.2,3c.25-.14,4,7.19,4.1,8C974,532.39,965.6,537.81,960.27,541.16Z" transform="translate(-780.59 -235.73)"/><path class="cls-12" d="M988.19,298.61c2.78,2.56,5.93,4.21,9.17,3.76a25.31,25.31,0,0,0,11.47-4.92c6.7-4.92,12.59-12.77,13.74-21.18,1.7-12.36-9-22.47-20.53-24.31a25.48,25.48,0,0,0-4.1-.33c-7.18,0-14.43,2-18.74,8-4.85,6.8-3.34,17.24-.46,24.61C980.28,288.23,983.78,294.56,988.19,298.61Z" transform="translate(-780.59 -235.73)"/><path class="cls-10" d="M965.85,449.59a127.17,127.17,0,0,1,5.86,18.15c4.43,16.5,13.26,49.52,13.26,49.52l-18.43,5.5c-4.59-12.76-10-25.21-15.39-37.64-1.9-4.35-3.74-8.72-5.61-13.09-3.32-7.81-6.7-15.6-10.47-23.19-4.77-9.58-7.6-17.7-6.87-28.63.45-6.88,3-12,10-13.34A181.63,181.63,0,0,1,960.83,404c5-.33,10-.46,15.06-.59l35.64-.93,18.24-.48c3.92-.1,9.14-1.49,12.92-.74,1.72,6.43,2.89,14.32.81,20.79-5.67,17.58-21.64,26-39.47,25.36-10.55-.37-20.8-3.61-30.52-7.72-3.7-1.57-7.44-3.29-11.44-3.57C961.3,440.47,964.15,445.7,965.85,449.59Z" transform="translate(-780.59 -235.73)"/><path class="cls-13" d="M989.21,403c9.36-.3,54.43.34,54.4,0-1.52-14.24-.41-29-.62-43.4-.18-11.91-1.42-24-5.58-35.22-3.65-9.88-9.81-20.47-21.77-20.28a20.86,20.86,0,0,0-6.31,1.14c-10.1,3.44-15.21,13.62-18,23.18-3.66,12.42-3.74,25.52-3.44,38.35.16,6.79-.38,13.58-.16,20.37C987.88,392.48,988.66,397.77,989.21,403Z" transform="translate(-780.59 -235.73)"/><path class="cls-10" d="M1007.78,284.78c.08,3.86,4.23,5,6.42,7.91a18.06,18.06,0,0,1,3.72,12A12.06,12.06,0,0,0,1018,309c.65,2.21,2.82,3.54,4.62,5,6.67,5.32,9.46,14,12.5,22a25.28,25.28,0,0,0,4.5,8.31,14.84,14.84,0,0,0,13.09,4.47c6.36-1,10.16-5.72,13.6-10.66a16.39,16.39,0,0,0,1.6-15.49c-2.9-6.79-10.51-12-9.87-19.36.28-3.13,2.09-5.94,2.56-9.05.94-6.14-3.46-11.77-8.1-15.88s-10.06-7.92-12.34-13.69c-1.7-4.32-1.39-9.21-2.88-13.61-2-5.79-6.92-10.22-12.56-12.58s-11.89-2.84-18-2.56a51.79,51.79,0,0,0-20.25,4.62c-6.27,3-11.79,7.91-14.79,14.21a7,7,0,0,0-.85,3.08c.06,3.16,3.56,5.05,6.65,5.7,3.42.72,6.23,1.06,8.71,3.61,1.79,1.84,2.7,4.56,5,5.94a12.76,12.76,0,0,0,4.67,1.77c1.64.22,2.72-.44,4.24-.57a3.25,3.25,0,0,1,1.88-3.87,4.86,4.86,0,0,1,4.54.69C1011.59,274.5,1007.68,280,1007.78,284.78Z" transform="translate(-780.59 -235.73)"/><path class="cls-12" d="M1021,356.23c.89,2.61,1.77,5.23,2.82,7.84l6.79,16.8c.84,2.08,1.9,4.38,4,5.11a5.23,5.23,0,0,0,3.87-.39,9.67,9.67,0,0,0,4.78-6.29c1.63-6.09-.7-12.34-2.5-18.11a240.48,240.48,0,0,0-12.08-30.58,60.54,60.54,0,0,0-3.92-7.7,14.36,14.36,0,0,0-6.36-5.65,8.27,8.27,0,0,0-8.2.89c-2.61,2.11-2.19,5.37-1.2,8.21a195.25,195.25,0,0,0,8,19.55A93.91,93.91,0,0,1,1021,356.23Z" transform="translate(-780.59 -235.73)"/><path class="cls-12" d="M1019.44,373.61c-13.52,1.27-26.83,4.69-40,8.1a7.52,7.52,0,0,0-3,1.27c-2.13,1.76-1.88,6.18.88,7.23a6.73,6.73,0,0,0,2.19.33c6.45.24,13.22.7,19.62.08,6.82-.66,13.63-1.38,20.43-2.27,2.74-.35,5.48-.74,8.21-1.15,3.47-.53,7.23-.54,10.33-2.37a2,2,0,0,0,1.18-1.62,8.69,8.69,0,0,0,0-4.5c-1.55-4.7-6.47-5.67-10.8-5.61C1025.44,373.15,1022.43,373.33,1019.44,373.61Z" transform="translate(-780.59 -235.73)"/><rect class="cls-1" x="923.03" y="399.42" width="56.39" height="6.65" transform="translate(1156.12 476.6) rotate(174.49)"/><rect class="cls-1" x="887.13" y="378.11" width="56.39" height="6.65" transform="translate(132.74 -845.92) rotate(67.26)"/><path class="cls-12" d="M957.05,383a16.47,16.47,0,0,1,2.91-.85l7.1-1.48c2.37-.49,4.87-1,7.18-.24a14.17,14.17,0,0,1,3.15,1.66l5.09,3.25a5.24,5.24,0,0,1-1.85,4.45,15.52,15.52,0,0,1-4.31,2.53,23.58,23.58,0,0,1-3.33,1.28c-5.39,1.45-11-1.22-15.74-4.11q-.59,2.79-1.15,5.56c-.25,1.23-1.56,4-3.2,2.28a3.08,3.08,0,0,1-.41-2.55l.78-5.77a11.42,11.42,0,0,1,.86-3.53A5.34,5.34,0,0,1,957.05,383Z" transform="translate(-780.59 -235.73)"/><path class="cls-14" d="M1006.42,334.25c1.65,5.26,2.83,11.08,5.64,15.86,2.15-.8,24.65-9.19,25.18-8.08q-3.46-7.3-6.91-14.61c-1.81-3.83-3.69-7.76-6.79-10.65s-7.73-4.55-11.67-3a10.22,10.22,0,0,0-5.52,6C1004.69,324.32,1005,329.78,1006.42,334.25Z" transform="translate(-780.59 -235.73)"/><path class="cls-10" d="M979.35,272.91a6.06,6.06,0,0,1,4-.9,6.14,6.14,0,0,1,3.81,1.69c.62.55,1.54-.36.92-.92a7.53,7.53,0,0,0-4.59-2,7.21,7.21,0,0,0-4.76,1.06.66.66,0,0,0-.23.89.64.64,0,0,0,.88.23Z" transform="translate(-780.59 -235.73)"/><path class="cls-10" d="M988.79,297a12.6,12.6,0,0,1-2.15.07.35.35,0,0,1-.33-.4.41.41,0,0,1,.42-.36,10.82,10.82,0,0,0,8.67-3.59.37.37,0,0,1,.53-.08.37.37,0,0,1,0,.53A11.38,11.38,0,0,1,988.79,297Z" transform="translate(-780.59 -235.73)"/><path class="cls-10" d="M986.65,279.06c.26,2-.56,3.85-1.83,4.1s-2.5-1.18-2.75-3.19.56-3.85,1.83-4.1S986.4,277.05,986.65,279.06Z" transform="translate(-780.59 -235.73)"/><path class="cls-10" d="M984.47,275.87l-4.82-.48S982.51,278.7,984.47,275.87Z" transform="translate(-780.59 -235.73)"/></svg>