<svg id="Layer_1" data-name="Layer 1" xmlns="http://www.w3.org/2000/svg" viewBox="0 0 750.96 563.56"><defs><style>.cls-1{fill:#0f2b46;}.cls-2{fill:#5e7cdb;}.cls-3{fill:#e56b10;}.cls-4{fill:#006494;}</style></defs><title>confetti_esq</title><path class="cls-1" d="M816,515.35a3.29,3.29,0,0,1-.75-.1,2.86,2.86,0,0,1-2-3.5c.34-1.25-.13-3-1.32-5-2.59-4.22-7.93-8.22-12.17-9.1a2.84,2.84,0,0,1,1.16-5.57c5.78,1.2,12.45,6.13,15.86,11.7,2.05,3.35,2.73,6.62,2,9.44A2.87,2.87,0,0,1,816,515.35Z" transform="translate(-584.82 -258.53)"/><path class="cls-1" d="M607.4,671.16a2.72,2.72,0,0,1-.84-.13c-3.4-1.06-5.83-3.88-6.84-7.94-1.63-6.54.76-14.87,5.66-19.81a2.85,2.85,0,0,1,4,4,16.47,16.47,0,0,0-4.18,14.42c.36,1.46,1.18,3.32,3,3.89a2.84,2.84,0,0,1-.85,5.56Z" transform="translate(-584.82 -258.53)"/><path class="cls-1" d="M1186.3,297.81h-.3a2.86,2.86,0,0,1-2.54-3.13c0-.63-1-3-3.59-5.66-3.24-3.36-7-5.45-10-5.45a2.85,2.85,0,1,1,0-5.69c7,0,13,6,14.7,7.89,1.48,1.64,4.89,5.86,4.51,9.5A2.84,2.84,0,0,1,1186.3,297.81Z" transform="translate(-584.82 -258.53)"/><path class="cls-2" d="M797.92,557.22a2.83,2.83,0,0,1-2.42-1.35c-4.15-6.74-5.65-13.69-4.1-19.06a14.18,14.18,0,0,1,7.67-8.87,2.84,2.84,0,1,1,2.52,5.1,8.44,8.44,0,0,0-4.73,5.34c-1.08,3.78.22,9.21,3.48,14.51a2.84,2.84,0,0,1-.93,3.91A2.81,2.81,0,0,1,797.92,557.22Z" transform="translate(-584.82 -258.53)"/><path class="cls-2" d="M613.7,716.85a2.86,2.86,0,0,1-2.71-2c-2.23-7-13.6-10.33-21.12-12.55l-3.06-.92a2.85,2.85,0,0,1,1.71-5.43l3,.9c8.67,2.56,21.78,6.43,24.93,16.26a2.85,2.85,0,0,1-1.84,3.58A2.91,2.91,0,0,1,613.7,716.85Z" transform="translate(-584.82 -258.53)"/><path class="cls-1" d="M1004.4,411.16a2.72,2.72,0,0,1-.84-.13c-3.4-1.06-5.83-3.88-6.84-7.94-1.63-6.54.76-14.87,5.66-19.81a2.85,2.85,0,0,1,4,4,16.47,16.47,0,0,0-4.18,14.42c.36,1.46,1.18,3.32,3,3.89a2.84,2.84,0,0,1-.85,5.56Z" transform="translate(-584.82 -258.53)"/><path class="cls-2" d="M1010.7,456.85a2.86,2.86,0,0,1-2.71-2c-2.23-7-13.6-10.33-21.12-12.55l-3.06-.92a2.85,2.85,0,0,1,1.71-5.43l3,.9c8.67,2.56,21.78,6.43,24.93,16.26a2.85,2.85,0,0,1-1.84,3.58A2.91,2.91,0,0,1,1010.7,456.85Z" transform="translate(-584.82 -258.53)"/><path class="cls-2" d="M1303.21,446.16a2.6,2.6,0,0,1-.4,0,2.84,2.84,0,0,1-2.42-3.21c.44-3.13-1.37-6.2-3-8.24-3.59-4.57-9.3-8-12.39-8.3a2.84,2.84,0,0,1,.57-5.66c5,.51,12,5,16.3,10.45,3.26,4.16,4.68,8.5,4.11,12.54A2.85,2.85,0,0,1,1303.21,446.16Z" transform="translate(-584.82 -258.53)"/><path class="cls-2" d="M668,330.88a2.82,2.82,0,0,1-1.71-.58c-9.45-7.14-12.25-20.71-6.52-31.57a2.84,2.84,0,1,1,5,2.65c-4.45,8.43-2.33,18.9,4.92,24.38a2.85,2.85,0,0,1-1.72,5.12Z" transform="translate(-584.82 -258.53)"/><path class="cls-3" d="M808.26,381a2.88,2.88,0,0,1-1.69-.56,2.84,2.84,0,0,1-.59-4c2.33-3.14,1.51-6.41.42-8.59-1.85-3.69-5.27-6-6.92-6a2.84,2.84,0,1,1,0-5.68c4.24,0,9.39,3.92,12,9.1s2.18,10.33-.93,14.53A2.86,2.86,0,0,1,808.26,381Z" transform="translate(-584.82 -258.53)"/><path class="cls-3" d="M607.4,297.81a2.84,2.84,0,0,1-2.84-2.78c-.16-6.86-4.95-11.47-11.91-11.47a2.85,2.85,0,0,1,0-5.69c10.13,0,17.36,7,17.59,17a2.84,2.84,0,0,1-2.77,2.91Z" transform="translate(-584.82 -258.53)"/><path class="cls-3" d="M595.85,822.09A2.91,2.91,0,0,1,595,822c-3.65-1.1-6.68-4.48-8.33-9.28-1.77-5.14-2-12.91,2.5-19.29a2.84,2.84,0,1,1,4.63,3.29,16,16,0,0,0-1.75,14.16c1,2.95,2.77,5.13,4.59,5.67a2.85,2.85,0,0,1-.82,5.57Z" transform="translate(-584.82 -258.53)"/><path class="cls-3" d="M1333,271.07a2.55,2.55,0,0,1-.72-.1c-2-.51-11.94-3.31-14.85-8.13a2.84,2.84,0,0,1,4.87-2.94c1.27,2.1,7.56,4.56,11.41,5.57a2.85,2.85,0,0,1-.71,5.6Z" transform="translate(-584.82 -258.53)"/><path class="cls-4" d="M604.73,375.26a2.84,2.84,0,0,1-1.55-5.23c7.06-4.6,10.13-18.24,8.08-21.67a2.84,2.84,0,0,1,4.88-2.92c3.9,6.53-.71,23.4-9.86,29.36A2.86,2.86,0,0,1,604.73,375.26Z" transform="translate(-584.82 -258.53)"/><path class="cls-4" d="M919,598.94a2.85,2.85,0,0,1-2-.84c-2.58-2.61-3.54-7.05-2.55-11.88,1.12-5.49,4.49-10,8.81-11.76a2.85,2.85,0,1,1,2.15,5.27c-3.08,1.25-4.81,4.76-5.39,7.63s-.17,5.54,1,6.73a2.85,2.85,0,0,1-2,4.85Z" transform="translate(-584.82 -258.53)"/><path class="cls-4" d="M1204.41,323.92a2.85,2.85,0,0,1-1.47-5.28c.45-.28,10.62-6.61,8.48-18.06a2.84,2.84,0,1,1,5.59-1c2.88,15.4-10.57,23.63-11.14,24A2.79,2.79,0,0,1,1204.41,323.92Z" transform="translate(-584.82 -258.53)"/></svg>