<svg id="Layer_1" data-name="Layer 1" xmlns="http://www.w3.org/2000/svg" viewBox="0 0 708.89 454.38"><defs><style>.cls-1{fill:#0f2b46;}.cls-2{fill:#5e7cdb;}.cls-3{fill:#e56b10;}.cls-4{fill:#006494;}</style></defs><title>confetti_right</title><path class="cls-1" d="M1142.94,516a2.83,2.83,0,0,1-2.8-2.39c-.76-4.7-7.29-9.43-14.58-8.49a2.84,2.84,0,1,1-.73-5.64c9.64-1.25,19.61,5.06,20.92,13.23a2.84,2.84,0,0,1-2.36,3.26Z" transform="translate(-605.44 -313.05)"/><path class="cls-1" d="M969.9,599.52h-.21a2.83,2.83,0,0,1-2.63-3c0-.68,1.3-17,15.57-22.7a2.84,2.84,0,0,1,2.13,5.27c-10.93,4.4-12,17.28-12,17.82A2.85,2.85,0,0,1,969.9,599.52Z" transform="translate(-605.44 -313.05)"/><path class="cls-1" d="M1297.42,363.52a2.85,2.85,0,0,1-2.39-1.29c-4.15-6.38-5.29-20,3.38-29a2.85,2.85,0,0,1,4.09,4c-7.08,7.32-5.21,18.06-2.7,21.92a2.84,2.84,0,0,1-.83,3.93A2.77,2.77,0,0,1,1297.42,363.52Z" transform="translate(-605.44 -313.05)"/><path class="cls-2" d="M609.15,343.17a2.83,2.83,0,0,1-2.39-1.31c-2-3.17-1.68-9.59.85-14.92,2.45-5.15,6.35-8.27,11-8.79a2.85,2.85,0,0,1,.63,5.66c-3.51.39-5.56,3.66-6.47,5.57-2,4.2-1.85,8.41-1.21,9.4a2.85,2.85,0,0,1-2.39,4.39Z" transform="translate(-605.44 -313.05)"/><path class="cls-2" d="M1102.32,471.54a2.85,2.85,0,0,1-2.71-2c-1.61-5,.42-13.1,4.45-17.76,2.76-3.18,6.25-4.6,9.84-4a2.84,2.84,0,1,1-1,5.6c-1.59-.27-3.13.44-4.58,2.11-3,3.46-4.26,9.44-3.34,12.27a2.84,2.84,0,0,1-1.82,3.58A2.74,2.74,0,0,1,1102.32,471.54Z" transform="translate(-605.44 -313.05)"/><path class="cls-1" d="M846.94,443a2.83,2.83,0,0,1-2.8-2.39c-.76-4.7-7.29-9.43-14.58-8.49a2.84,2.84,0,1,1-.73-5.64c9.64-1.25,19.61,5.06,20.92,13.23a2.84,2.84,0,0,1-2.36,3.26Z" transform="translate(-605.44 -313.05)"/><path class="cls-2" d="M806.32,398.54a2.85,2.85,0,0,1-2.71-2c-1.61-5,.42-13.1,4.45-17.76,2.76-3.18,6.25-4.6,9.84-4a2.84,2.84,0,1,1-1,5.6c-1.59-.27-3.13.44-4.58,2.11-3,3.46-4.26,9.44-3.34,12.27a2.84,2.84,0,0,1-1.82,3.58A2.74,2.74,0,0,1,806.32,398.54Z" transform="translate(-605.44 -313.05)"/><path class="cls-2" d="M1283.42,400.29a1.77,1.77,0,0,1-.32,0,2.84,2.84,0,0,1-2.51-3.14c.86-7.65-3.48-16-9.67-18.55a2.85,2.85,0,1,1,2.18-5.26c8.51,3.54,14.29,14.28,13.14,24.44A2.84,2.84,0,0,1,1283.42,400.29Z" transform="translate(-605.44 -313.05)"/><path class="cls-2" d="M1174.81,767.43a2.69,2.69,0,0,1-.4,0,2.85,2.85,0,0,1-2.42-3.22c.44-3.12-1.36-6.2-3-8.23-3.58-4.58-9.3-8-12.39-8.3a2.84,2.84,0,0,1,.58-5.66c5,.51,12,5,16.29,10.45,3.26,4.16,4.68,8.5,4.11,12.54A2.85,2.85,0,0,1,1174.81,767.43Z" transform="translate(-605.44 -313.05)"/><path class="cls-2" d="M1311.05,507.37a2.68,2.68,0,0,1-.62-.07,2.84,2.84,0,0,1-2.16-3.39c1.45-6.55-1.23-10.76-8.94-14.1a2.84,2.84,0,1,1,2.26-5.22c10.16,4.4,14.27,11.31,12.23,20.55A2.84,2.84,0,0,1,1311.05,507.37Z" transform="translate(-605.44 -313.05)"/><path class="cls-3" d="M1051.47,333.5a2.82,2.82,0,0,1-1.49-.43l-15.72-9.67a2.84,2.84,0,1,1,3-4.84l15.72,9.67a2.84,2.84,0,0,1-1.49,5.27Z" transform="translate(-605.44 -313.05)"/><path class="cls-3" d="M1248.3,526.32a2.85,2.85,0,0,1-2.84-2.74,53,53,0,0,1,.39-7.77c.83-6.24,2.8-9.8,6-10.88a2.85,2.85,0,0,1,1.81,5.4c-1.35.45-2.79,6.37-2.55,13a2.86,2.86,0,0,1-2.74,3Z" transform="translate(-605.44 -313.05)"/><path class="cls-3" d="M1242,343.17a2.85,2.85,0,0,1-1.42-5.31c.16-.1,15.84-9.35,13.42-21.41a2.85,2.85,0,1,1,5.58-1.12c3.22,16.07-15.36,27-16.16,27.45A2.81,2.81,0,0,1,1242,343.17Z" transform="translate(-605.44 -313.05)"/><path class="cls-4" d="M1005.1,411.69a2.84,2.84,0,0,1-2.63-1.77c-1.58-3.86-.47-9.09,2.89-13.65,4.06-5.48,10.11-8.41,16.19-7.85a2.84,2.84,0,1,1-.53,5.66c-4.08-.38-8.22,1.71-11.08,5.57-2.1,2.83-3,6.17-2.21,8.11a2.83,2.83,0,0,1-1.55,3.71A2.75,2.75,0,0,1,1005.1,411.69Z" transform="translate(-605.44 -313.05)"/><path class="cls-4" d="M1236.77,586.48c-9.21,0-19-10.6-21.41-20.17a2.84,2.84,0,1,1,5.52-1.37c1.88,7.57,10.27,16.59,16.62,15.81a2.84,2.84,0,1,1,.7,5.64A11.32,11.32,0,0,1,1236.77,586.48Z" transform="translate(-605.44 -313.05)"/></svg>