<svg id="Layer_1" data-name="Layer 1" xmlns="http://www.w3.org/2000/svg" viewBox="0 0 191.63 151.46"><defs><style>.cls-1{fill:#0f2b46;}.cls-2{fill:#091d2d;}.cls-3{opacity:0.2;}.cls-4{fill:#f28b79;}.cls-5{fill:#f2644c;}</style></defs><title>dark_crown</title><polygon class="cls-1" points="165.8 54.45 130.15 23.35 124.89 70.36 89.24 39.26 83.99 86.28 48.34 55.18 43.08 102.19 7.44 71.09 55.65 150.51 189.19 98.55 171.05 7.44 165.8 54.45"/><path class="cls-2" d="M928.61,593.8a7.43,7.43,0,1,0,4.23-9.62A7.42,7.42,0,0,0,928.61,593.8Z" transform="translate(-887.19 -535.93)"/><path class="cls-1" d="M969.51,577.89a7.43,7.43,0,1,0,4.23-9.62A7.44,7.44,0,0,0,969.51,577.89Z" transform="translate(-887.19 -535.93)"/><path class="cls-1" d="M1010.41,562a7.44,7.44,0,1,0,4.24-9.63A7.44,7.44,0,0,0,1010.41,562Z" transform="translate(-887.19 -535.93)"/><path class="cls-1" d="M1051.32,546.06a7.43,7.43,0,1,0,4.23-9.62A7.42,7.42,0,0,0,1051.32,546.06Z" transform="translate(-887.19 -535.93)"/><path class="cls-2" d="M887.7,609.72a7.44,7.44,0,1,0,4.23-9.62A7.44,7.44,0,0,0,887.7,609.72Z" transform="translate(-887.19 -535.93)"/><polygon class="cls-3" points="89.25 39.27 89.24 39.26 83.99 86.28 48.34 55.18 43.08 102.19 7.44 71.09 55.65 150.51 122.42 124.53 89.25 39.27"/><path class="cls-2" d="M928.61,593.8a7.43,7.43,0,1,0,4.23-9.62A7.42,7.42,0,0,0,928.61,593.8Z" transform="translate(-887.19 -535.93)"/><path class="cls-2" d="M973.74,568.27a7.43,7.43,0,1,0,5.39,13.85Z" transform="translate(-887.19 -535.93)"/><path class="cls-2" d="M887.7,609.72a7.44,7.44,0,1,0,4.23-9.62A7.44,7.44,0,0,0,887.7,609.72Z" transform="translate(-887.19 -535.93)"/><rect class="cls-2" x="932.65" y="646.1" width="148.54" height="14.87" transform="translate(-1055.63 -126.37) rotate(-21.26)"/><polygon class="cls-4" points="115.58 81.03 113.33 101.18 98.06 87.85 100.31 67.71 115.58 81.03"/><polygon class="cls-5" points="113.33 101.18 98.06 87.85 100.31 67.71 113.33 101.18"/><rect class="cls-3" x="935.17" y="659.56" width="74.27" height="14.87" transform="translate(-1062.87 -138) rotate(-21.26)"/></svg>