<svg id="Layer_1" data-name="Layer 1" xmlns="http://www.w3.org/2000/svg" viewBox="0 0 624.89 727.14"><defs><style>.cls-1,.cls-13{fill:#006494;}.cls-11,.cls-2,.cls-4{fill:#fff;}.cls-2{stroke:#006494;stroke-miterlimit:10;stroke-width:2px;}.cls-11,.cls-3{opacity:0.2;}.cls-5{fill:#1a2e35;}.cls-6{fill:#ffc3bd;}.cls-7{fill:#59595b;}.cls-8{fill:#ff847f;}.cls-9{fill:#f46f52;}.cls-10{fill:#007cff;}.cls-12,.cls-14{fill:#0f2b46;}.cls-13,.cls-14{font-size:39px;font-family:OpenSans-SemiBold, Open Sans;font-weight:600;}</style></defs><title>capa-img</title><rect class="cls-1" x="1057.42" y="205.89" width="1.97" height="21.14" transform="translate(82.54 1068.4) rotate(-83.88)"/><path class="cls-1" d="M1094.76,272.27l-2-.21,2.24-20.94a29.33,29.33,0,0,0-6.4-21.69,29.87,29.87,0,0,0-6.27-5.83l1.12-1.62A31.7,31.7,0,0,1,1097,251.33Z" transform="translate(-647.84 -177.37)"/><path class="cls-2" d="M908.86,286.24l5.84-54.46a24.71,24.71,0,0,1,27.13-21.87l126.45,13.55a24.73,24.73,0,0,1,21.88,27.13l-5.84,54.46a24.72,24.72,0,0,1-27.13,21.88l-2.65-.29c1.53,9,6.47,20.66,19.13,34.07-26.05-9.2-39.39-23.77-46.21-37l-96.72-10.37A24.71,24.71,0,0,1,908.86,286.24Z" transform="translate(-647.84 -177.37)"/><path class="cls-3" d="M1006.24,254.69,995,215.6l-53.13-5.69a24.7,24.7,0,0,0-27.12,21.87l-5.85,54.46a24.62,24.62,0,0,0,7.25,20.16l73.3-21.18A24.73,24.73,0,0,0,1006.24,254.69Z" transform="translate(-647.84 -177.37)"/><path class="cls-4" d="M999.76,254.08l-7.28-54.28a24.72,24.72,0,0,0-27.7-21.15l-126,16.92a24.71,24.71,0,0,0-21.15,27.7l7.29,54.28a24.7,24.7,0,0,0,27.7,21.15l2.64-.35c-1.29,9-5.92,20.82-18.22,34.57,25.8-9.9,38.74-24.82,45.21-38.19l96.42-12.94A24.71,24.71,0,0,0,999.76,254.08Z" transform="translate(-647.84 -177.37)"/><path class="cls-1" d="M833.27,335.48l2.93-3.27c9.9-11.07,15.86-22,17.73-32.62l-1.22.17a25.78,25.78,0,0,1-28.9-22.07l-7.28-54.28a25.79,25.79,0,0,1,22.06-28.9l126-16.91a25.73,25.73,0,0,1,28.9,22.06l7.29,54.28a25.74,25.74,0,0,1-22.06,28.9L882.91,295.7c-8.4,17-23.71,29.84-45.54,38.21Zm23.19-38.37-.2,1.39c-1.48,10.36-6.73,21-15.6,31.79,19.36-8.26,33-20.36,40.58-36l.25-.51,97-13a23.61,23.61,0,0,0,20.24-26.5l-7.28-54.29a23.6,23.6,0,0,0-26.51-20.23l-126,16.91a23.67,23.67,0,0,0-20.24,26.51l7.29,54.28a23.65,23.65,0,0,0,26.51,20.24Z" transform="translate(-647.84 -177.37)"/><path class="cls-1" d="M880,241.4a13,13,0,1,1-15-10.68A13,13,0,0,1,880,241.4Z" transform="translate(-647.84 -177.37)"/><path class="cls-1" d="M920.14,242.67a13,13,0,1,1-15-10.69A13,13,0,0,1,920.14,242.67Z" transform="translate(-647.84 -177.37)"/><path class="cls-1" d="M956.36,220.64a13,13,0,1,1-15-10.69A13,13,0,0,1,956.36,220.64Z" transform="translate(-647.84 -177.37)"/><path class="cls-5" d="M810.76,419.32l4.85,5.7,5.06,5.81c3.38,3.86,6.86,7.58,10.31,11.15,1.74,1.78,3.49,3.51,5.25,5.13s3.49,3.23,5.21,4.63,3.44,2.65,5,3.72a27.43,27.43,0,0,0,3.75,2.15l-2.87-.45a3.68,3.68,0,0,0-2.41.53c0,.1.44,0,1.07-.37a26.54,26.54,0,0,0,4.79-3.65,116.69,116.69,0,0,0,10.69-11.62c3.56-4.27,7-8.81,10.48-13.42l10.28-13.95.14-.19a8.4,8.4,0,0,1,14.79,7.5c-1.9,6-4.1,11.65-6.53,17.36s-5.16,11.25-8.21,16.8a115,115,0,0,1-11,16.54,55.88,55.88,0,0,1-8.28,8.34,31.23,31.23,0,0,1-6.59,4.1,24.21,24.21,0,0,1-11,2.28,11.28,11.28,0,0,1-2-.26l-.85-.19a49.43,49.43,0,0,1-11.37-4.18,77.87,77.87,0,0,1-8.79-5.23A127.16,127.16,0,0,1,808,466c-4.45-4-8.53-8.23-12.48-12.52-2-2.17-3.89-4.33-5.73-6.58-.93-1.12-1.86-2.24-2.77-3.4l-2.78-3.63a16.77,16.77,0,0,1,26.06-21.09Z" transform="translate(-647.84 -177.37)"/><path class="cls-6" d="M882.78,410.87c1.05-8.27,16.06-12.1,16.06-12.1l8.77-3.88a6.63,6.63,0,0,1,8.24,2.43l4.47,6.83a6.65,6.65,0,0,1-2,9.27l-8,5a11.86,11.86,0,0,1-4.74,1.7l-6.84.88a15.29,15.29,0,0,1-14.84-6.91l-.42-.65A3.92,3.92,0,0,1,882.78,410.87Z" transform="translate(-647.84 -177.37)"/><path class="cls-5" d="M716.32,408.06c23.25-2.89,56.48-2.62,78.75,1.22A27,27,0,0,1,817,432c4.69,33.63.66,92.44-2.33,151.62-50.88,17.41-104.57-.23-104.57-.23-1.85-12,2.31-51.07,5.11-72-4.2-21.56-13.1-46.26-19-74.9A23.47,23.47,0,0,1,716.32,408.06Z" transform="translate(-647.84 -177.37)"/><path class="cls-4" d="M776.26,407c2.8,2.81,4.66,7.23,5.65,12.92,2.39,13.66-.32,34.71-7.51,58.85-6.9-19.44-21.74-45.17-30.85-60.12-4.31-7.08-7.33-11.76-7.61-12.17a.06.06,0,0,1,0,0A83.81,83.81,0,0,1,776.26,407Z" transform="translate(-647.84 -177.37)"/><path class="cls-7" d="M750.05,369.05a8.36,8.36,0,1,1-8.36-8.36A8.36,8.36,0,0,1,750.05,369.05Z" transform="translate(-647.84 -177.37)"/><path class="cls-7" d="M793.51,338.12c-.4,7.69-5.27,13.69-10.9,13.41s-9.86-6.76-9.46-14.45,5.27-13.69,10.89-13.4S793.9,330.43,793.51,338.12Z" transform="translate(-647.84 -177.37)"/><path class="cls-6" d="M740.18,361.15l28.7,23.54c-3.71,9.87-1,19.59,7.38,22.34,1.38,4.29-3.51,8.79-8.19,13.13-10.81-1.34-23.74-3.4-30.34-12.46C739.81,400.58,743,375.76,740.18,361.15Z" transform="translate(-647.84 -177.37)"/><path class="cls-3" d="M768.89,384.68,752,370.8a31.72,31.72,0,0,0-1,9.26c.43,6.29,9,13.18,16.33,14.23A23.77,23.77,0,0,1,768.89,384.68Z" transform="translate(-647.84 -177.37)"/><path class="cls-6" d="M735.08,343.66c2.78,19.1,3.43,30.42,13.95,39.38,15.83,13.49,38.81,2.51,41.8-17.08,2.7-17.63-2.29-45.9-21.73-51.81C749.94,308.33,732.31,324.57,735.08,343.66Z" transform="translate(-647.84 -177.37)"/><path class="cls-3" d="M760.23,344.33s-4.1-2-7.58-.46A19.49,19.49,0,0,0,760.23,344.33Z" transform="translate(-647.84 -177.37)"/><path class="cls-3" d="M760,346.13s-4-1.05-6.75,1.31A16.06,16.06,0,0,0,760,346.13Z" transform="translate(-647.84 -177.37)"/><path class="cls-3" d="M756.62,357.23c-2-.29-3.94.17-3.68,3.65C753.53,359.27,755.35,357.45,756.62,357.23Z" transform="translate(-647.84 -177.37)"/><path class="cls-7" d="M739.37,357.17c10.56-3.24,11.44-17,7.1-19.55,8.86,1.51,18-10.47,14.58-14.52,21.64,11.72,37.45,5.54,30.46-11.44C783.33,291.8,759,299.94,760,304.75c-13.38-7.83-36,1.69-26.41,11.19-13.2-4.15-23.13,9.05-15.08,19.11-16.88,8.77-.6,28.69,6.1,27.08C723.78,368.61,741,375.78,739.37,357.17Z" transform="translate(-647.84 -177.37)"/><path class="cls-5" d="M779.31,366.48s-5.74-2.48-22.48-6c1.17,5,4.17,9.46,12.76,11.16S779.31,366.48,779.31,366.48Z" transform="translate(-647.84 -177.37)"/><path class="cls-8" d="M766.24,367.28a17.76,17.76,0,0,1,9,4.14,9.72,9.72,0,0,1-5.59.27c-4.15-.82-7-2.28-8.93-4.14A9.64,9.64,0,0,1,766.24,367.28Z" transform="translate(-647.84 -177.37)"/><path class="cls-4" d="M778.58,366.19a3.24,3.24,0,0,1-3,1.72A100.29,100.29,0,0,1,761,363.7a5,5,0,0,1-3.39-3C770.44,363.38,776.6,365.46,778.58,366.19Z" transform="translate(-647.84 -177.37)"/><path class="cls-6" d="M727.32,356.56A16.63,16.63,0,0,0,735,366.74c5.1,2.92,9.13-1.28,9-6.84-.16-5-3-12.54-8.71-13.19S726,351.3,727.32,356.56Z" transform="translate(-647.84 -177.37)"/><path class="cls-5" d="M765.29,344.37c.13,1.56,1.06,2.75,2.09,2.66s1.74-1.44,1.61-3-1.06-2.76-2.09-2.66S765.16,342.81,765.29,344.37Z" transform="translate(-647.84 -177.37)"/><path class="cls-5" d="M783,343.91c.13,1.57,1.06,2.76,2.08,2.66s1.75-1.43,1.62-3-1.06-2.75-2.09-2.66S782.84,342.35,783,343.91Z" transform="translate(-647.84 -177.37)"/><path class="cls-8" d="M778.66,346s4.31,8.7,8.58,12.69c-2.55,2.83-7.35,2.09-7.35,2.09Z" transform="translate(-647.84 -177.37)"/><path class="cls-7" d="M770,340.41a1,1,0,0,1,.21.42.92.92,0,0,1-.71,1.09,9.26,9.26,0,0,1-8.21-2,.92.92,0,0,1,0-1.3.93.93,0,0,1,1.31,0h0a7.41,7.41,0,0,0,6.51,1.53A.94.94,0,0,1,770,340.41Z" transform="translate(-647.84 -177.37)"/><path class="cls-7" d="M791.24,336.79a.89.89,0,0,1-.86-.13,7.31,7.31,0,0,0-6.52-1.29.9.9,0,0,1-1.17-.55.93.93,0,0,1,.55-1.18,9.08,9.08,0,0,1,8.24,1.54.91.91,0,0,1,.18,1.29A.93.93,0,0,1,791.24,336.79Z" transform="translate(-647.84 -177.37)"/><path class="cls-5" d="M725.53,440.22l-4.43,7.41-4.45,7.61c-2.95,5.07-5.75,10.2-8.42,15.27s-5.07,10.16-7,15a70.91,70.91,0,0,0-2.37,6.88,35.4,35.4,0,0,0-1,4.58c-.15,2.14,1.18,6.67,3.47,11a100,100,0,0,0,8.78,13.58c6.76,9.07,15,18.08,23,26.63l.25.27a8.38,8.38,0,0,1-10.11,13.11,157.19,157.19,0,0,1-16.54-10.49,160.9,160.9,0,0,1-15.3-12.51,106.49,106.49,0,0,1-13.9-15.63,69.09,69.09,0,0,1-5.93-10.06,43.78,43.78,0,0,1-3.91-13.14,48.84,48.84,0,0,1,.6-13.79,82.47,82.47,0,0,1,2.7-10.91,153.78,153.78,0,0,1,7.4-19.06c2.72-6,5.74-11.79,8.88-17.45,1.6-2.82,3.19-5.62,4.9-8.37s3.37-5.39,5.34-8.31a16.78,16.78,0,0,1,28.32,18Z" transform="translate(-647.84 -177.37)"/><path class="cls-4" d="M879.31,418.17s-.1-5.91,1.22-9.24c5.06-1.36,18.79,8.27,20.87,12.67-.9,2.55-6.7,8-6.7,8C890.4,425.54,882.63,421,879.31,418.17Z" transform="translate(-647.84 -177.37)"/><polygon class="cls-1" points="241.45 408.68 0 408.68 0 392.28 241.45 372.6 241.45 408.68"/><polygon class="cls-1" points="205.36 727.14 36.09 727.14 16.4 408.68 225.04 408.68 205.36 727.14"/><circle class="cls-4" cx="768.56" cy="740.67" r="51.83" transform="translate(-660.32 -164.2) rotate(-0.97)"/><polygon class="cls-3" points="223.56 432.76 16.83 415.53 16.4 408.68 225.04 408.68 223.56 432.76"/><path class="cls-6" d="M717.55,551.9a3.91,3.91,0,0,1,.68-2.58l4.45-6.57A4,4,0,0,1,726.6,541l6.63,1a45.32,45.32,0,0,1,18.07,7l1.81,1.19a6.64,6.64,0,0,1,1.81,9.31l-4.63,6.72a6.64,6.64,0,0,1-8.3,2.24l-8.67-4.09S718.39,560.2,717.55,551.9Z" transform="translate(-647.84 -177.37)"/><path class="cls-4" d="M725,537.91s5.89.23,9.16,1.72c1.07,5.14-9.31,18.31-13.82,20.14-2.5-1-7.6-7.14-7.6-7.14C717,548.57,722,541.06,725,537.91Z" transform="translate(-647.84 -177.37)"/><path class="cls-5" d="M871.79,545.92a1.06,1.06,0,0,1-.51-.14,1,1,0,0,1-.33-1.35c.58-1,14.1-24.27-10.47-39.84a1,1,0,0,1,1.06-1.67c26.2,16.62,11.25,42.26,11.09,42.52A1,1,0,0,1,871.79,545.92Z" transform="translate(-647.84 -177.37)"/><path class="cls-5" d="M853.94,552.84l32.81-2.67s-4-6.66-16.93-5.24S853.94,552.84,853.94,552.84Z" transform="translate(-647.84 -177.37)"/><path class="cls-5" d="M862.45,504.65h0a3,3,0,0,1-4.14.7l-4.79-3.4a3,3,0,0,1-.7-4.13h0a3,3,0,0,1,4.13-.71l4.8,3.4A3,3,0,0,1,862.45,504.65Z" transform="translate(-647.84 -177.37)"/><path class="cls-5" d="M1133.86,335.54c-22.8,11.59-32.76,28.31-27.73,44s-5.88,18.16-4.47,38.93,13.44,24.07,6.44,33.91,7.12,43.73,45.55,25.8,54.79-50.06,44.86-68.77-19.83-25.16-19.77-49.15C1178.79,339.46,1161.58,321.45,1133.86,335.54Z" transform="translate(-647.84 -177.37)"/><path class="cls-6" d="M1021.87,470l1.8,3a9.45,9.45,0,0,0,6.65,4.51l15.46,2.44,6.34-5.05c-3.63-7.33-14.11-13.23-14.11-13.23l-2.77-2a6.51,6.51,0,0,0-8,.25l-4.66,4.31A4.45,4.45,0,0,0,1021.87,470Z" transform="translate(-647.84 -177.37)"/><path class="cls-6" d="M1123.86,457c-2.06,4.75-4.26,8.93-6.54,13.3s-4.74,8.53-7.34,12.68-5.33,8.24-8.22,12.24-6,7.91-9.26,11.73l-.34.39a8.65,8.65,0,0,1-2.33,1.92,18.19,18.19,0,0,1-6.41,2.14,19.41,19.41,0,0,1-5.93-.11,28.19,28.19,0,0,1-8.74-3.15,56,56,0,0,1-11.81-9,102.12,102.12,0,0,1-9-10.18,109.37,109.37,0,0,1-7.62-11,5.4,5.4,0,0,1,8.24-6.8l.18.16c3,2.66,6.11,5.48,9.22,8.06s6.28,5.1,9.47,7.29a45.48,45.48,0,0,0,9.24,5.2,9.09,9.09,0,0,0,3.33.74c.71-.08.36-.27,0-.13l-2.67,2.32A252.14,252.14,0,0,0,1091.55,472c2.21-4,4.4-7.94,6.51-12s4.18-8.19,6.09-12l.11-.23a10.82,10.82,0,0,1,19.6,9.15Z" transform="translate(-647.84 -177.37)"/><path class="cls-9" d="M1133.57,428.23c-29.19-5.57-51.14,46.33-52.06,58,1,10.52,19.75,11.24,19.75,11.24S1141.56,465.66,1133.57,428.23Z" transform="translate(-647.84 -177.37)"/><path class="cls-4" d="M1104.6,496.79a18.88,18.88,0,0,1-3.89,3.49.82.82,0,0,1-.4.13c-1.73.15-13.82.82-20.89-8.21a1,1,0,0,1-.22-.53,20.06,20.06,0,0,1,1.2-7.62.92.92,0,0,1,1.43-.43c3,2.31,12.59,9.21,22.29,11.66A.92.92,0,0,1,1104.6,496.79Z" transform="translate(-647.84 -177.37)"/><path class="cls-10" d="M1204.44,581.89s-14.21-29.9-14.6-49.14c-12.42,0-83.39-3-85.3,13.06.13,1-1.28,22.84-3.17,26.6C1113.71,595.62,1165.06,590.38,1204.44,581.89Z" transform="translate(-647.84 -177.37)"/><path class="cls-5" d="M1204.44,581.89s-14.21-29.9-14.6-49.14c-12.42,0-83.39-3-85.3,13.06.13,1-1.28,22.84-3.17,26.6C1113.71,595.62,1165.06,590.38,1204.44,581.89Z" transform="translate(-647.84 -177.37)"/><path class="cls-9" d="M1099.91,457.92a352.31,352.31,0,0,0,1.43,35.48c1.55,25.78.67,45.2,2.32,55.25a60.15,60.15,0,0,0,20.68,5.67,32.36,32.36,0,0,1,4.81-6.68c1.8,1.43,7.38,5.54,10.74,6,15.43-1.16,44.54-5.55,52-12.33-3.62-21.62-7.87-41,4.79-90.53,2.93-11.48-4.56-22.24-16.09-23.11-3.08-.24-6.35-.41-9.7-.49-13-.29-23.7-.43-35.23.92-3.82.45-7.78,1-11.56,1.66C1110.48,432,1100,444.24,1099.91,457.92Z" transform="translate(-647.84 -177.37)"/><path class="cls-3" d="M1181.7,457.84c.67,11,3.92,23.25,7.34,33.52.65-6.45,1.73-13.64,3.37-21.81Z" transform="translate(-647.84 -177.37)"/><path class="cls-6" d="M1171.09,557.47l1.68-3.12a9.45,9.45,0,0,1,6.46-4.77l15.35-3.06,6.54,4.79c-3.33,7.47-13.57,13.79-13.57,13.79l-2.69,2a6.48,6.48,0,0,1-7.95.08l-4.83-4.12A4.45,4.45,0,0,1,1171.09,557.47Z" transform="translate(-647.84 -177.37)"/><path class="cls-6" d="M1204,449.85c.94,1.23,1.64,2.18,2.4,3.25s1.44,2.11,2.14,3.17c1.39,2.12,2.72,4.26,4,6.42a149.45,149.45,0,0,1,7,13.39,136.09,136.09,0,0,1,5.69,14.15,117.72,117.72,0,0,1,4,15.08l.1.49,0,.24.08.47a18.43,18.43,0,0,1,.21,1.87,21.41,21.41,0,0,1-.06,3.23,26.17,26.17,0,0,1-1.08,5.32,43.58,43.58,0,0,1-3.63,8.2,85.79,85.79,0,0,1-9.06,12.8,153.44,153.44,0,0,1-21.28,20.62,5.39,5.39,0,0,1-7.71-7.42l.12-.15c5.49-7.37,11-15.05,15.65-22.65a86,86,0,0,0,6-11.31,24.39,24.39,0,0,0,1.59-5,7.7,7.7,0,0,0,.15-1.67c0-.17,0-.31-.08-.33s0,0,0,.1,0,.06,0,0l-.06-.19-.12-.37c-1.17-3.94-2.65-8.09-4.3-12.12s-3.52-8-5.58-12-4.21-7.82-6.5-11.64c-1.15-1.91-2.31-3.8-3.52-5.66l-1.82-2.74-1.73-2.54-.29-.43A10.81,10.81,0,0,1,1204,449.85Z" transform="translate(-647.84 -177.37)"/><path class="cls-9" d="M1179.23,427.59c29.56-3.08,47,50.5,47,62.16-1.88,10.4-20.63,9.53-20.63,9.53S1168.1,464.21,1179.23,427.59Z" transform="translate(-647.84 -177.37)"/><path class="cls-6" d="M1164.78,387.42c-1.8,11.61-3.37,32.46,4.19,39.83,0,0-10.78-1.33-33.21,13.36-6.84-9.3-2-12.44-2-12.44,12.79-3.35,12.71-11.27,10.2-19.85Z" transform="translate(-647.84 -177.37)"/><path class="cls-4" d="M1140.48,437.65c7.54.87,10.18,12.15,10.18,12.15s17.71-13.22,23.19-22.37a74.41,74.41,0,0,1-6.7-4S1144.75,433.2,1140.48,437.65Z" transform="translate(-647.84 -177.37)"/><path class="cls-4" d="M1133.31,436.62s-6.44,1.92-8.55,11.11c-2.14-16.49,5.5-19.51,5.5-19.51s2.32-1.74,6.77-1.15C1131.15,430.36,1133.31,436.62,1133.31,436.62Z" transform="translate(-647.84 -177.37)"/><path class="cls-3" d="M1156.28,396,1144,408.31a35.14,35.14,0,0,1,1.31,6.15c4.78-1.24,11.18-7.28,11.5-12.41A16.77,16.77,0,0,0,1156.28,396Z" transform="translate(-647.84 -177.37)"/><path class="cls-6" d="M1171.89,363.73c-1.4,18.58-1.6,26.45-11,36.33-14.16,14.87-36.39,10.3-40.5-8-3.7-16.5-.79-44.11,17.29-52.2C1155.48,331.87,1173.29,345.15,1171.89,363.73Z" transform="translate(-647.84 -177.37)"/><path class="cls-5" d="M1158.45,343.56c-13.79,16.22,16,28.54,18,47.08C1179,368.68,1173.9,331.05,1158.45,343.56Z" transform="translate(-647.84 -177.37)"/><path class="cls-5" d="M1167.37,344.6c-19.14,5-24.59,3.17-28.86,2.63-4.6,5-33.41,16.48-28.77.76,2.13-7.22,14.65-25.26,37.51-25S1186.28,339.68,1167.37,344.6Z" transform="translate(-647.84 -177.37)"/><path class="cls-11" d="M1160.29,346.78a.32.32,0,0,1-.14,0,.48.48,0,0,1-.33-.61c1.06-3.5-.17-7.21-3.45-10.43-5.54-5.43-16.73-9.11-27.45-5.63a.49.49,0,0,1-.62-.32.49.49,0,0,1,.31-.62c11.09-3.59,22.7.23,28.44,5.87,3.57,3.49,4.88,7.54,3.71,11.41A.49.49,0,0,1,1160.29,346.78Z" transform="translate(-647.84 -177.37)"/><path class="cls-11" d="M1168.34,344.44h-.08a.5.5,0,0,1-.41-.57c.82-5.19-3.29-10.22-10.47-12.79a.49.49,0,1,1,.33-.93c7.65,2.74,12,8.19,11.11,13.88A.48.48,0,0,1,1168.34,344.44Z" transform="translate(-647.84 -177.37)"/><path class="cls-5" d="M1143.4,370c-.05,1.57-.9,2.86-1.89,2.9s-1.76-1.2-1.71-2.76.89-2.87,1.89-2.9S1143.45,368.4,1143.4,370Z" transform="translate(-647.84 -177.37)"/><path class="cls-5" d="M1124.69,370.93c0,1.56-.9,2.86-1.89,2.9s-1.76-1.2-1.71-2.77.89-2.86,1.89-2.9S1124.74,369.37,1124.69,370.93Z" transform="translate(-647.84 -177.37)"/><path class="cls-5" d="M1123.42,368.24l-3.62-.95S1121.58,370.15,1123.42,368.24Z" transform="translate(-647.84 -177.37)"/><path class="cls-8" d="M1129.82,373.3s-2.8,6.83-5.74,10.19c2,1.85,5.39.84,5.39.84Z" transform="translate(-647.84 -177.37)"/><path class="cls-5" d="M1137.58,389.31a15.21,15.21,0,0,1-2.57-.12.41.41,0,0,1-.35-.51.49.49,0,0,1,.53-.39,13,13,0,0,0,10.71-3.45.44.44,0,0,1,.64,0,.45.45,0,0,1,0,.64A13.71,13.71,0,0,1,1137.58,389.31Z" transform="translate(-647.84 -177.37)"/><path class="cls-6" d="M1175.18,382.85a12.82,12.82,0,0,1-8.19,6.34c-4.32.87-5.87-4.12-4.16-8.91,1.54-4.3,5.65-9.94,9.74-8.63S1177.58,378.7,1175.18,382.85Z" transform="translate(-647.84 -177.37)"/><path class="cls-5" d="M1145.27,360.1a.81.81,0,0,1-.61-.32,6.72,6.72,0,0,0-5.75-2.69.83.83,0,0,1-1-.78,1,1,0,0,1,.85-1,8.35,8.35,0,0,1,7.31,3.32.92.92,0,0,1-.2,1.28A1,1,0,0,1,1145.27,360.1Z" transform="translate(-647.84 -177.37)"/><path class="cls-5" d="M1119.21,362.77a.78.78,0,0,1-.63-.19.9.9,0,0,1,0-1.27,9.55,9.55,0,0,1,7.67-3.61.83.83,0,0,1,.75,1,1,1,0,0,1-1,.83,7.62,7.62,0,0,0-6.05,2.92A1,1,0,0,1,1119.21,362.77Z" transform="translate(-647.84 -177.37)"/><path class="cls-5" d="M1142.12,367.27l-3.61-.95S1140.29,369.18,1142.12,367.27Z" transform="translate(-647.84 -177.37)"/><path class="cls-4" d="M1202.29,498.36a18.28,18.28,0,0,0,3.59,3.8.73.73,0,0,0,.38.17c1.71.29,13.7,2,21.51-6.41a1.08,1.08,0,0,0,.26-.51,19.88,19.88,0,0,0-.55-7.7.91.91,0,0,0-1.38-.55c-3.21,2-13.33,8.11-23.2,9.73A.93.93,0,0,0,1202.29,498.36Z" transform="translate(-647.84 -177.37)"/><polygon class="cls-12" points="383.45 408.68 624.89 408.68 624.89 392.28 383.45 372.6 383.45 408.68"/><polygon class="cls-12" points="419.53 727.14 588.81 727.14 608.49 408.68 399.85 408.68 419.53 727.14"/><circle class="cls-4" cx="1152.01" cy="740.67" r="51.83" transform="translate(-255.97 1702.56) rotate(-89.03)"/><polygon class="cls-3" points="401.34 432.76 608.07 415.53 608.49 408.68 399.85 408.68 401.34 432.76"/><path class="cls-5" d="M1048.78,545.92a1,1,0,0,1-.84-.48c-.15-.26-15.11-25.9,11.1-42.52a1,1,0,0,1,1,1.67c-24.6,15.59-11,38.85-10.46,39.84a1,1,0,0,1-.34,1.35A1,1,0,0,1,1048.78,545.92Z" transform="translate(-647.84 -177.37)"/><path class="cls-5" d="M1066.63,552.84l-32.81-2.67s4-6.66,16.93-5.24S1066.63,552.84,1066.63,552.84Z" transform="translate(-647.84 -177.37)"/><path class="cls-5" d="M1058.13,504.65h0a3,3,0,0,0,4.13.7l4.79-3.4a3,3,0,0,0,.71-4.13h0a3,3,0,0,0-4.14-.71l-4.79,3.4A3,3,0,0,0,1058.13,504.65Z" transform="translate(-647.84 -177.37)"/><text class="cls-13" transform="translate(95.76 577.4)">G1</text><text class="cls-14" transform="translate(477.76 577.4)">G2</text></svg>