<svg id="Layer_1" data-name="Layer 1" xmlns="http://www.w3.org/2000/svg" viewBox="0 0 191.63 151.46"><defs><style>.cls-1{fill:#fdc33e;}.cls-2{fill:#fdcf65;}.cls-3{fill:#fcae28;}.cls-4{fill:#f2644c;}.cls-5{fill:#f28b79;}.cls-6{fill:#fdbe53;}</style></defs><title>light_crown</title><path class="cls-1" d="M848,452.38a7.43,7.43,0,1,0,4.23-9.62A7.42,7.42,0,0,0,848,452.38Z" transform="translate(-806.58 -394.51)"/><path class="cls-1" d="M888.9,436.47a7.43,7.43,0,1,0,4.23-9.62A7.44,7.44,0,0,0,888.9,436.47Z" transform="translate(-806.58 -394.51)"/><path class="cls-1" d="M929.8,420.55a7.43,7.43,0,1,0,4.24-9.62A7.44,7.44,0,0,0,929.8,420.55Z" transform="translate(-806.58 -394.51)"/><path class="cls-1" d="M970.71,404.64a7.43,7.43,0,1,0,4.23-9.62A7.42,7.42,0,0,0,970.71,404.64Z" transform="translate(-806.58 -394.51)"/><path class="cls-1" d="M807.09,468.3a7.44,7.44,0,1,0,4.23-9.63A7.44,7.44,0,0,0,807.09,468.3Z" transform="translate(-806.58 -394.51)"/><polygon class="cls-1" points="165.8 54.45 130.15 23.35 124.89 70.36 89.24 39.26 83.99 86.28 48.34 55.18 43.08 102.19 7.44 71.09 55.65 150.51 189.19 98.55 171.05 7.44 165.8 54.45"/><polygon class="cls-2" points="89.25 39.27 89.24 39.26 83.99 86.28 48.34 55.18 43.08 102.19 7.44 71.09 55.65 150.51 122.42 124.53 89.25 39.27"/><path class="cls-2" d="M848,452.38a7.43,7.43,0,1,0,4.23-9.62A7.42,7.42,0,0,0,848,452.38Z" transform="translate(-806.58 -394.51)"/><path class="cls-2" d="M893.13,426.85a7.43,7.43,0,0,0,5.39,13.85Z" transform="translate(-806.58 -394.51)"/><path class="cls-2" d="M807.09,468.3a7.44,7.44,0,1,0,4.23-9.63A7.44,7.44,0,0,0,807.09,468.3Z" transform="translate(-806.58 -394.51)"/><rect class="cls-3" x="852.04" y="504.68" width="148.54" height="14.87" transform="translate(-929.23 -23.8) rotate(-21.26)"/><polygon class="cls-4" points="115.58 81.03 113.33 101.18 98.06 87.85 100.31 67.71 115.58 81.03"/><polygon class="cls-5" points="113.33 101.18 98.06 87.85 100.31 67.71 113.33 101.18"/><rect class="cls-6" x="854.56" y="518.14" width="74.27" height="14.87" transform="translate(-936.47 -35.43) rotate(-21.26)"/></svg>