<svg id="Layer_1" data-name="Layer 1" xmlns="http://www.w3.org/2000/svg" viewBox="0 0 53.43 53.43"><defs><style>.cls-1{fill:#006494;}.cls-2{fill:#fff;}</style></defs><title>maneta-img</title><circle class="cls-1" cx="26.72" cy="26.72" r="26.72"/><path class="cls-1" d="M986.63,544.55l-16-18.37-5.26,7.3-7.85,5-6.11-1.77-.73-.56-1,.85L944,551l12.46,15.57a27.71,27.71,0,0,0,3.79.27A26.72,26.72,0,0,0,986.63,544.55Z" transform="translate(-933.57 -513.39)"/><path class="cls-2" d="M974.29,540.92l-8.18-1.26a1.94,1.94,0,0,1-1.63-2.22h0a1.93,1.93,0,0,1,2.22-1.63l8.14.5c1.07.16,1.84,1.91,1.67,3h0A2,2,0,0,1,974.29,540.92Z" transform="translate(-933.57 -513.39)"/><path class="cls-2" d="M973.15,545.67l-8-1.67a1.93,1.93,0,0,1-1.5-2.29h0a1.93,1.93,0,0,1,2.28-1.49l8.23,1.43a2.08,2.08,0,0,1,1.3,2.53h0A1.93,1.93,0,0,1,973.15,545.67Z" transform="translate(-933.57 -513.39)"/><path class="cls-2" d="M972,550.4l-7.88-2a1.91,1.91,0,0,1-1.48-2.25h0a1.92,1.92,0,0,1,2.26-1.48l7.93,1.66a1.91,1.91,0,0,1,1.47,2.26h0A2.16,2.16,0,0,1,972,550.4Z" transform="translate(-933.57 -513.39)"/><path class="cls-2" d="M969.42,554.71l-6.36-2.13a1.8,1.8,0,0,1-1.28-2.2h0a1.81,1.81,0,0,1,2.21-1.29l7,1.84a1.8,1.8,0,0,1,1.28,2.2h0A2.79,2.79,0,0,1,969.42,554.71Z" transform="translate(-933.57 -513.39)"/><path class="cls-2" d="M970.63,526.18h0c-.23-.35-1-1.11-1.47-.46l-.27.4a12.67,12.67,0,0,1-4,3.76c-1.29.76-2.66,1.55-2.91,1.68s-2.17,1.58-3.94,2.94-6.58,2.22-6.58,2.22h0v12.73h1.31a10.82,10.82,0,0,1,4.71,1.07l3.5,1.69a.31.31,0,0,0,.41-.41v0a2.62,2.62,0,0,1-.25-1.29,2.64,2.64,0,0,1,1.63-2.26,2.61,2.61,0,0,1-.58-2.74,2.58,2.58,0,0,1,.75-1.09,2.8,2.8,0,0,1,.72-.43,2.83,2.83,0,0,1-.48-.69,2.55,2.55,0,0,1-.26-1.3,3.44,3.44,0,0,0,1-5,2.51,2.51,0,0,1,.77-1.1,3,3,0,0,1,2.14-.63l1,.07,1.55-1.93a7.71,7.71,0,0,0,1.33-2.13l.22-.5a5.19,5.19,0,0,0-.27-4.56Z" transform="translate(-933.57 -513.39)"/><rect class="cls-2" x="10.47" y="21.92" width="6.64" height="15.68" rx="0.85"/></svg>