<svg xmlns="http://www.w3.org/2000/svg" viewBox="0 0 374.71 493.85"><defs><style>.cls-1{isolation:isolate;}.cls-2{fill:#473b3a;}.cls-2,.cls-5{opacity:0.3;mix-blend-mode:multiply;}.cls-3{fill:#ffc3bd;}.cls-4{fill:#006494;}.cls-5,.cls-6{fill:#0f2b46;}.cls-7{fill:none;}.cls-8{opacity:0.2;}</style></defs><title>pencils</title><g class="cls-1"><g id="Layer_1" data-name="Layer 1"><polygon class="cls-2" points="349.4 208.09 340.72 208 313.6 280.48 310 493.4 349.4 493.86 349.4 208.09"/><polygon class="cls-3" points="325.54 279.04 347.5 209.46 352.11 209.46 372.96 281.46 371.64 286.51 328.18 286.29 325.54 279.04"/><path class="cls-4" d="M1112.5,786.59h19.73V577.07a9.73,9.73,0,0,0-9.66-8c-8.42-.18-10.07,8-10.07,8Z" transform="translate(-772.93 -293.18)"/><path class="cls-4" d="M1097.2,786.45H1113V576.53s-1-7.77-7.71-8-8,8-8,8Z" transform="translate(-772.93 -293.18)"/><path class="cls-4" d="M1131.88,786.45h15.76V576.53s-1-7.77-7.71-8-8,8-8,8Z" transform="translate(-772.93 -293.18)"/><path class="cls-4" d="M1132.6,529.13a56.53,56.53,0,0,1-20.83.48l8.48-28.33h5.09Z" transform="translate(-772.93 -293.18)"/><polygon class="cls-5" points="349.4 208.09 340.72 208 313.6 280.48 310 493.4 349.4 493.86 349.4 208.09"/><polygon class="cls-5" points="267.4 258.09 258.72 258 231.6 330.48 228 493.4 267.4 493.86 267.4 258.09"/><polygon class="cls-3" points="243.49 328.92 265.44 259.33 270.05 259.33 290.9 331.33 289.59 336.38 246.12 336.16 243.49 328.92"/><path class="cls-6" d="M1030.44,786.59h19.74V627a9.73,9.73,0,0,0-9.66-8c-8.42-.18-10.08,8-10.08,8Z" transform="translate(-772.93 -293.18)"/><path class="cls-6" d="M1015.14,786.45h15.76v-160s-1-7.78-7.71-8-8.05,8-8.05,8Z" transform="translate(-772.93 -293.18)"/><path class="cls-6" d="M1049.83,786.45h15.76v-160s-1-7.78-7.71-8-8.05,8-8.05,8Z" transform="translate(-772.93 -293.18)"/><path class="cls-6" d="M1050.34,578.73a55.29,55.29,0,0,1-20.41.48l8.3-27.76h5Z" transform="translate(-772.93 -293.18)"/><line class="cls-7" x1="261.14" y1="270.4" x2="261.14" y2="271.4"/><polygon class="cls-5" points="267.4 258.09 258.72 258 231.6 330.48 228 493.4 267.4 493.86 267.4 258.09"/><polygon class="cls-5" points="39.4 258.09 30.72 258 3.6 330.48 0 493.4 39.4 493.85 39.4 258.09"/><polygon class="cls-3" points="14.74 328.92 36.7 259.33 41.31 259.33 62.16 331.33 60.84 336.38 17.38 336.16 14.74 328.92"/><path class="cls-4" d="M801.7,786.59h19.73V627a9.72,9.72,0,0,0-9.65-8c-8.42-.18-10.08,8-10.08,8Z" transform="translate(-772.93 -293.18)"/><path class="cls-4" d="M786.4,786.45h15.76v-160s-1-7.78-7.71-8-8.05,8-8.05,8Z" transform="translate(-772.93 -293.18)"/><path class="cls-4" d="M821.08,786.45h15.76v-160s-1-7.78-7.71-8-8,8-8,8Z" transform="translate(-772.93 -293.18)"/><path class="cls-4" d="M821.68,578.84a55.7,55.7,0,0,1-20.58.48l8.37-28h5Z" transform="translate(-772.93 -293.18)"/><polygon class="cls-2" points="39.4 258.09 30.72 258 3.6 330.48 0 493.4 39.4 493.85 39.4 258.09"/><polygon class="cls-5" points="189.4 87.09 180.72 87 153.6 159.48 150 493.4 189.4 493.4 189.4 87.09"/><polygon class="cls-3" points="164.26 157.4 186.22 87.82 190.83 87.82 211.68 159.82 210.36 164.87 166.9 164.65 164.26 157.4"/><path class="cls-4" d="M951.22,786.59H971V455.43a9.73,9.73,0,0,0-9.66-7.95c-8.42-.18-10.07,7.95-10.07,7.95Z" transform="translate(-772.93 -293.18)"/><path class="cls-4" d="M935.91,786.45h15.76V454.89s-1-7.77-7.71-7.95-8.05,7.95-8.05,7.95Z" transform="translate(-772.93 -293.18)"/><path class="cls-4" d="M970.6,786.45h15.76V454.89s-1-7.77-7.71-7.95-8,7.95-8,7.95Z" transform="translate(-772.93 -293.18)"/><path class="cls-4" d="M971.06,407.17a55.64,55.64,0,0,1-20.31.47L959,380.26h5Z" transform="translate(-772.93 -293.18)"/><polygon class="cls-5" points="189.4 87.09 180.72 87 153.6 159.48 150 493.4 189.4 493.4 189.4 87.09"/><polygon class="cls-8" points="114.4 0.09 105.72 0 78.6 72.48 75 493.4 114.4 493.4 114.4 0.09"/><polygon class="cls-3" points="89.97 70.98 111.92 1.39 116.53 1.39 137.38 73.39 136.07 78.44 92.6 78.22 89.97 70.98"/><path class="cls-6" d="M876.92,786.59h19.74V369a9.73,9.73,0,0,0-9.66-7.95c-8.42-.18-10.08,7.95-10.08,7.95Z" transform="translate(-772.93 -293.18)"/><path class="cls-6" d="M861.62,786.45h15.76v-418s-1-7.78-7.71-8-8,8-8,8Z" transform="translate(-772.93 -293.18)"/><path class="cls-6" d="M896.31,786.45h15.76v-418s-1-7.78-7.71-8-8.05,8-8.05,8Z" transform="translate(-772.93 -293.18)"/><path class="cls-6" d="M897,321a56.32,56.32,0,0,1-20.79.48l8.46-28.28h5.08Z" transform="translate(-772.93 -293.18)"/><polygon class="cls-5" points="114.4 0.09 105.72 0 78.6 72.48 75 493.4 114.4 493.4 114.4 0.09"/></g></g></svg>