<svg id="Layer_1" data-name="Layer 1" xmlns="http://www.w3.org/2000/svg" viewBox="0 0 436.55 540.66"><defs><style>.cls-1{fill:#f3be2e;}.cls-2{fill:#f3d22e;}.cls-3{fill:#f5de69;}.cls-4{fill:#f5dc4e;}.cls-5{fill:#f7c848;}.cls-6{fill:#fac13c;}.cls-7{fill:#f3b82e;}</style></defs><title>taca_dir</title><path class="cls-1" d="M1143.41,332.94c27.94,94.91-21.18,166-75.72,185.22l-8.42-23.92c35.92-9.48,76.38-55.77,60.18-139.85a13.13,13.13,0,0,0-17.12-9.86l-65.58,23.08-8.06-22.9,91.86-32.32C1136.65,306.73,1143.4,332.89,1143.41,332.94Z" transform="translate(-745.7 -269.98)"/><path class="cls-1" d="M749.47,471.55c37.65,91.49,120.47,116.18,175,97l-8.41-23.91c-34,15.1-94.48,4.35-134.5-71.36a13.12,13.12,0,0,1,7.17-18.4l65.59-23.08-8.05-22.89-91.86,32.32C738.32,446.88,749.45,471.51,749.47,471.55Z" transform="translate(-745.7 -269.98)"/><rect class="cls-2" x="997.77" y="509.45" width="34.58" height="166.62" transform="translate(-884.91 100.53) rotate(-19.39)"/><path class="cls-2" d="M1039.94,275.25,797.83,360.44c25.63,170.58,155.7,236.15,201.06,238l32.94-11.59C1065.13,557.32,1123.6,425.41,1039.94,275.25Z" transform="translate(-745.7 -269.98)"/><path class="cls-1" d="M1048.37,291.58,800.48,378.8a8.3,8.3,0,0,1-7.15-1,12.59,12.59,0,0,1-5.15-6.6h0a12.58,12.58,0,0,1-.12-8.36,8.29,8.29,0,0,1,5-5.24l247.88-87.22a8.35,8.35,0,0,1,7.16,1,12.63,12.63,0,0,1,5.15,6.6h0a12.73,12.73,0,0,1,.12,8.37A8.34,8.34,0,0,1,1048.37,291.58Z" transform="translate(-745.7 -269.98)"/><path class="cls-1" d="M948,381l17.7,17.3,24.3-4.77a4.12,4.12,0,0,1,4.48,5.86l-11,22.19,12.05,21.62a4.12,4.12,0,0,1-4.2,6.08l-24.49-3.59L950,463.86a4.11,4.11,0,0,1-7.07-2.11l-4.15-24.41-22.46-10.42a4.12,4.12,0,0,1-.18-7.38l21.93-11.49,3-24.57A4.11,4.11,0,0,1,948,381Z" transform="translate(-745.7 -269.98)"/><path class="cls-1" d="M1028.9,412.67,1040,423.51l15.21-3a2.58,2.58,0,0,1,2.81,3.67l-6.88,13.89,7.54,13.54a2.58,2.58,0,0,1-2.62,3.81l-15.34-2.25-10.55,11.36a2.58,2.58,0,0,1-4.43-1.33l-2.6-15.28-14.06-6.52a2.58,2.58,0,0,1-.11-4.62l13.73-7.19,1.86-15.39A2.58,2.58,0,0,1,1028.9,412.67Z" transform="translate(-745.7 -269.98)"/><path class="cls-1" d="M902.2,457.25l11.08,10.84,15.21-3a2.58,2.58,0,0,1,2.81,3.67l-6.88,13.89L932,496.2a2.58,2.58,0,0,1-2.63,3.81L914,497.76l-10.55,11.36a2.58,2.58,0,0,1-4.43-1.33l-2.6-15.28L882.36,486a2.58,2.58,0,0,1-.11-4.62L896,474.18l1.86-15.39A2.58,2.58,0,0,1,902.2,457.25Z" transform="translate(-745.7 -269.98)"/><path class="cls-3" d="M861.63,381.37,829.4,392.71C862.33,512.2,920.69,543.89,952.64,545.2,925,522.4,881.69,477.33,861.63,381.37Z" transform="translate(-745.7 -269.98)"/><path class="cls-4" d="M911.14,500.83l-7.69,8.29a2.58,2.58,0,0,1-4.43-1.33l-2.6-15.27L882.36,486a2.57,2.57,0,0,1-.11-4.62l12.57-6.59A253.73,253.73,0,0,0,911.14,500.83Z" transform="translate(-745.7 -269.98)"/><path class="cls-5" d="M911.14,500.83l-7.69,8.29a2.58,2.58,0,0,1-4.43-1.33l-2.6-15.27L882.36,486a2.57,2.57,0,0,1-.11-4.62l12.57-6.59A253.73,253.73,0,0,0,911.14,500.83Z" transform="translate(-745.7 -269.98)"/><rect class="cls-6" x="797.69" y="340.43" width="111.84" height="11.06" rx="4.92" transform="translate(-812.14 32.95) rotate(-19.39)"/><path class="cls-6" d="M808.29,436.58l-45.65,16.06a5.14,5.14,0,0,1-6.57-3.15h0a5.14,5.14,0,0,1,3.15-6.57l45.64-16.06a5.15,5.15,0,0,1,6.58,3.15h0A5.15,5.15,0,0,1,808.29,436.58Z" transform="translate(-745.7 -269.98)"/><path class="cls-1" d="M972.65,650.69h168.59A10.34,10.34,0,0,1,1151.58,661v96.84a0,0,0,0,1,0,0H962.32a0,0,0,0,1,0,0V661A10.34,10.34,0,0,1,972.65,650.69Z" transform="translate(-919.55 120.76) rotate(-19.39)"/><path class="cls-2" d="M1081.49,659.91h9a0,0,0,0,1,0,0V870.35a0,0,0,0,1,0,0h-9A13.44,13.44,0,0,1,1068,856.91V673.35A13.44,13.44,0,0,1,1081.49,659.91Z" transform="translate(697.09 -776.9) rotate(70.61)"/><rect class="cls-2" x="990.86" y="679.23" width="132.18" height="50.1" rx="7.72" transform="translate(-919.55 120.76) rotate(-19.39)"/><rect class="cls-7" x="996.2" y="690.49" width="112.75" height="9.92" transform="translate(-916.86 118.81) rotate(-19.39)"/><rect class="cls-7" x="1001.99" y="706.94" width="112.75" height="9.92" transform="translate(-921.99 121.66) rotate(-19.39)"/></svg>