<svg id="Layer_1" data-name="Layer 1" xmlns="http://www.w3.org/2000/svg" viewBox="0 0 443.48 545.82"><defs><style>.cls-1{fill:#f3be2e;}.cls-2{fill:#f3d22e;}.cls-3{fill:#f5de69;}.cls-4{fill:#f5dc4e;}.cls-5{fill:#f7c848;}.cls-6{fill:#fac13c;}.cls-7{fill:#f3b82e;}</style></defs><title>taca_esq</title><path class="cls-1" d="M1173.37,484.54c-42.9,89.16-127,109-180.35,86.67l9.78-23.38c33,17,94.07,9.82,138.42-63.43a13.13,13.13,0,0,0-6.1-18.79L1071,438.76l9.38-22.39,89.82,37.6C1185.93,460.56,1173.39,484.5,1173.37,484.54Z" transform="translate(-734.64 -267.39)"/><path class="cls-1" d="M788.14,323.29c-33.4,93.14,11.5,167,64.85,189.31l9.78-23.39c-35.31-11.54-73-60.11-52-143.11a13.13,13.13,0,0,1,17.66-8.85l64.14,26.85L902,341.71l-89.83-37.6C796.41,297.52,788.15,323.25,788.14,323.29Z" transform="translate(-734.64 -267.39)"/><rect class="cls-2" x="886.66" y="507.98" width="34.58" height="166.62" transform="translate(-436.24 -570.56) rotate(22.71)"/><path class="cls-2" d="M1135.27,372.38l-236.76-99.1C803.17,417,855.73,552.88,888.14,584.67l32.21,13.48C964.87,598.56,1096.67,539.88,1135.27,372.38Z" transform="translate(-734.64 -267.39)"/><path class="cls-1" d="M1130.58,390.14,888.18,288.67a8.31,8.31,0,0,1-4.67-5.51,12.64,12.64,0,0,1,.61-8.35h0a12.65,12.65,0,0,1,5.52-6.29,8.33,8.33,0,0,1,7.2-.54l242.4,101.46a8.33,8.33,0,0,1,4.67,5.51,12.64,12.64,0,0,1-.61,8.35h0a12.56,12.56,0,0,1-5.52,6.29A8.29,8.29,0,0,1,1130.58,390.14Z" transform="translate(-734.64 -267.39)"/><path class="cls-1" d="M996.16,389.24,997.7,414l21.22,12.74a4.12,4.12,0,0,1-.6,7.36l-23,9.1-5.56,24.12a4.11,4.11,0,0,1-7.18,1.7l-15.77-19.09-24.66,2.17a4.11,4.11,0,0,1-3.83-6.31l13.28-20.89-9.68-22.79a4.12,4.12,0,0,1,4.81-5.6l24,6.18,18.67-16.25A4.12,4.12,0,0,1,996.16,389.24Z" transform="translate(-734.64 -267.39)"/><path class="cls-1" d="M1035,466.94l1,15.47,13.29,8a2.57,2.57,0,0,1-.38,4.6l-14.42,5.7-3.48,15.1a2.58,2.58,0,0,1-4.5,1.06l-9.87-12-15.44,1.36a2.58,2.58,0,0,1-2.4-3.95l8.32-13.08L1001,475a2.57,2.57,0,0,1,3-3.5l15,3.87,11.7-10.18A2.57,2.57,0,0,1,1035,466.94Z" transform="translate(-734.64 -267.39)"/><path class="cls-1" d="M911.05,415.08l1,15.47,13.29,8a2.57,2.57,0,0,1-.38,4.6l-14.42,5.7L907,463.93a2.58,2.58,0,0,1-4.5,1.06L892.65,453l-15.44,1.36a2.58,2.58,0,0,1-2.4-3.95l8.32-13.08-6.06-14.27a2.57,2.57,0,0,1,3-3.5l15,3.86,11.7-10.17A2.57,2.57,0,0,1,911.05,415.08Z" transform="translate(-734.64 -267.39)"/><path class="cls-3" d="M931.82,331.57l-31.51-13.19c-55.67,110.74-33.62,173.38-10.79,195.77C884.26,478.67,882.38,416.22,931.82,331.57Z" transform="translate(-734.64 -267.39)"/><path class="cls-4" d="M888.47,453.41l-11.26,1a2.58,2.58,0,0,1-2.4-3.95l8.32-13.08-6.06-14.27a2.57,2.57,0,0,1,3-3.5l13.75,3.54A253.8,253.8,0,0,0,888.47,453.41Z" transform="translate(-734.64 -267.39)"/><path class="cls-5" d="M888.47,453.41l-11.26,1a2.58,2.58,0,0,1-2.4-3.95l8.32-13.08-6.06-14.27a2.57,2.57,0,0,1,3-3.5l13.75,3.54A253.8,253.8,0,0,0,888.47,453.41Z" transform="translate(-734.64 -267.39)"/><rect class="cls-6" x="893.69" y="294.39" width="111.84" height="11.06" rx="4.92" transform="translate(-545.2 -610.79) rotate(22.71)"/><path class="cls-6" d="M855.23,336.78,810.59,318.1a5.15,5.15,0,0,1-2.76-6.75h0a5.15,5.15,0,0,1,6.74-2.76l44.64,18.68A5.16,5.16,0,0,1,862,334h0A5.15,5.15,0,0,1,855.23,336.78Z" transform="translate(-734.64 -267.39)"/><path class="cls-1" d="M776,648.53H944.57a10.34,10.34,0,0,1,10.34,10.34V755.7a0,0,0,0,1,0,0H765.64a0,0,0,0,1,0,0V658.86A10.34,10.34,0,0,1,776,648.53Z" transform="translate(-396.84 -545.11) rotate(22.71)"/><path class="cls-2" d="M838.26,657h9a0,0,0,0,1,0,0V867.45a0,0,0,0,1,0,0h-9A13.44,13.44,0,0,1,824.82,854V670.45A13.44,13.44,0,0,1,838.26,657Z" transform="translate(1127.32 17.93) rotate(112.71)"/><rect class="cls-2" x="835.22" y="636.02" width="50.1" height="132.18" rx="7.72" transform="translate(-854.2 957.19) rotate(-67.29)"/><rect class="cls-7" x="806.58" y="687.67" width="112.75" height="9.92" transform="translate(-400.29 -546.88) rotate(22.71)"/><rect class="cls-7" x="799.84" y="703.76" width="112.75" height="9.92" transform="translate(-394.6 -543.03) rotate(22.71)"/></svg>